<?xml version="1.0" standalone="no"?>
<!DOCTYPE svg PUBLIC "-//W3C//DTD SVG 20010904//EN"
 "http://www.w3.org/TR/2001/REC-SVG-20010904/DTD/svg10.dtd">
<svg version="1.0" xmlns="http://www.w3.org/2000/svg"
 width="385.000000pt" height="385.000000pt" viewBox="0 0 385.000000 385.000000"
 preserveAspectRatio="xMidYMid meet">
<metadata>
Created by potrace 1.11, written by Peter Selinger 2001-2013
</metadata>
<g transform="translate(0.000000,385.000000) scale(0.100000,-0.100000)"
fill="#000000" stroke="none">
<path d="M874 3115 c-20 -31 -15 -134 11 -205 20 -56 21 -167 1 -263 -14 -63
-89 -271 -116 -319 -6 -10 -10 -24 -10 -32 0 -7 -7 -19 -15 -26 -8 -7 -12 -16
-9 -21 3 -5 1 -9 -4 -9 -5 0 -8 15 -7 33 2 17 3 40 4 51 1 16 3 17 17 5 15
-12 16 -11 10 7 -4 12 -2 44 5 70 31 136 59 371 48 402 -27 72 -106 -8 -116
-116 -3 -32 -9 -62 -14 -68 -12 -16 -19 -230 -9 -299 5 -34 16 -64 24 -71 21
-15 20 -27 -6 -61 -39 -48 -48 -71 -48 -118 0 -25 -3 -45 -7 -45 -5 0 -9 -12
-9 -27 -3 -48 -8 -73 -16 -73 -4 0 -8 -9 -8 -20 0 -22 -15 -27 -26 -8 -5 8
-10 7 -18 -3 -6 -8 -20 -15 -31 -17 -57 -10 -61 -56 -21 -267 47 -250 84 -375
123 -406 8 -7 33 -15 55 -18 48 -7 47 -6 87 -136 63 -208 162 -374 320 -538
186 -193 337 -286 551 -340 114 -28 394 -31 512 -5 330 74 649 343 819 692 31
65 67 155 79 200 28 106 42 126 83 126 39 0 71 26 93 78 35 81 104 415 107
521 1 62 -18 106 -47 109 -9 1 -27 2 -41 3 -29 2 -30 8 -9 90 15 60 15 64 -9
153 -13 50 -25 106 -26 124 -1 19 -8 46 -16 61 -10 21 -11 31 -3 39 16 16 28
105 16 120 -7 8 -8 45 -4 101 4 60 3 92 -4 96 -8 5 -7 12 2 23 10 12 10 14 1
8 -8 -4 -13 -1 -13 8 0 9 3 15 8 15 17 -3 22 2 13 14 -6 6 -24 28 -41 48 -16
20 -30 46 -30 58 0 11 -5 21 -10 21 -6 0 -15 11 -20 25 -5 14 -14 25 -19 25
-5 0 -14 14 -20 31 -9 25 -14 29 -32 24 -12 -4 -19 -3 -16 1 3 5 -5 22 -18 38
-19 24 -26 27 -38 17 -9 -7 -18 -8 -21 -2 -3 5 -25 12 -49 16 -23 3 -50 9 -59
11 -10 3 -21 -3 -28 -17 -11 -20 -10 -21 14 -17 30 6 36 -7 6 -15 -12 -3 -20
-14 -20 -25 0 -12 -4 -24 -10 -27 -13 -8 -13 -45 -1 -45 5 0 22 5 37 10 23 9
25 8 15 -4 -9 -11 -8 -17 4 -30 9 -9 20 -16 25 -16 5 0 12 -9 15 -20 3 -11 11
-20 16 -20 6 0 7 5 4 10 -3 6 1 10 9 10 9 0 16 -6 16 -14 0 -21 21 -31 32 -15
6 10 7 6 2 -11 -4 -13 -12 -30 -19 -37 -27 -26 -125 -50 -305 -75 -126 -17
-627 -17 -730 0 -166 28 -260 59 -260 87 0 20 -18 28 -150 65 -249 70 -408
140 -531 231 -37 27 -69 49 -72 49 -4 0 -14 -11 -23 -25z m2142 -537 c6 -40 8
-84 4 -98 l-7 -25 -17 34 c-24 46 -34 140 -15 152 23 15 25 12 35 -63z m-1901
52 c3 -6 18 -7 31 -4 14 4 35 2 47 -4 26 -13 172 -48 277 -67 41 -7 111 -20
155 -29 169 -33 352 -48 630 -52 438 -6 536 -11 550 -31 13 -17 51 -11 40 7
-3 5 -2 10 4 10 5 0 13 -4 16 -10 3 -5 16 -10 28 -11 22 -1 22 -1 -1 -7 -30
-9 -33 -26 -4 -30 15 -2 22 -10 22 -25 0 -12 5 -29 11 -37 8 -11 9 -6 7 23 -2
20 0 37 4 37 9 0 9 -4 11 -91 0 -42 -4 -63 -13 -69 -12 -7 -10 -14 10 -36 18
-19 20 -25 8 -21 -12 4 -15 2 -11 -9 3 -7 8 -14 13 -14 6 0 24 -184 20 -215
-5 -50 -5 -179 0 -215 3 -25 2 -63 -2 -85 -14 -78 -30 -180 -31 -210 -1 -16
-8 -36 -14 -43 -7 -7 -13 -29 -13 -47 0 -18 -6 -40 -14 -48 -8 -8 -17 -35 -21
-60 -4 -26 -11 -47 -15 -47 -5 0 -21 -25 -36 -56 -15 -32 -37 -69 -49 -83 -22
-27 -48 -78 -60 -121 -9 -30 -35 -61 -46 -55 -14 9 -21 -15 -9 -30 9 -11 9
-15 1 -15 -6 0 -11 -10 -12 -22 0 -13 -3 -18 -6 -11 -3 10 -9 10 -23 1 -25
-16 -31 -9 -41 49 -9 48 -35 93 -57 101 -8 2 -10 -6 -6 -26 4 -17 1 -32 -5
-36 -17 -11 -1202 -9 -1213 2 -5 5 -4 20 2 37 14 38 4 44 -25 14 -30 -29 -49
-116 -35 -155 l10 -26 183 3 c179 3 183 3 232 -23 58 -30 174 -58 240 -58 68
0 182 28 249 62 l59 30 131 -8 c72 -4 135 -7 140 -6 4 2 14 -2 22 -9 8 -6 23
-9 34 -6 11 3 20 3 20 1 0 -26 -96 -124 -121 -124 -10 0 -24 -6 -32 -14 -8 -8
-24 -12 -41 -9 -26 5 -27 4 -18 -14 13 -24 -1 -43 -33 -43 -12 0 -30 -7 -41
-15 -10 -8 -27 -15 -36 -15 -10 0 -18 -4 -18 -10 0 -5 -21 -10 -46 -10 -41 0
-45 -2 -39 -20 8 -26 -15 -36 -45 -20 -15 8 -25 9 -29 2 -3 -5 -42 -12 -86
-15 -44 -2 -87 -8 -96 -11 -10 -4 -23 -1 -32 8 -9 9 -25 16 -36 16 -12 0 -21
6 -21 14 0 16 -27 29 -41 20 -5 -3 -9 -12 -9 -20 0 -18 -24 -18 -39 0 -6 7
-30 16 -53 20 -38 6 -64 23 -106 68 -10 11 -24 15 -43 11 -18 -3 -33 1 -46 13
-10 11 -44 32 -76 48 -31 15 -57 32 -57 37 0 5 -11 11 -24 15 -15 3 -23 11
-20 19 3 7 -4 18 -15 25 -12 6 -21 17 -21 24 0 7 -16 24 -35 37 -38 25 -71 81
-60 99 3 6 3 10 -2 9 -22 -4 -33 3 -33 20 0 10 -7 24 -15 31 -8 7 -15 21 -15
31 0 11 -4 19 -10 19 -5 0 -10 6 -10 14 0 7 -6 19 -14 25 -7 6 -19 33 -26 59
-7 26 -19 58 -25 72 -7 14 -17 36 -23 50 -5 14 -17 41 -26 62 -9 20 -16 43
-16 52 0 9 -4 16 -10 16 -5 0 -10 10 -10 23 0 13 -4 27 -10 33 -5 5 -11 41
-14 80 -2 38 -9 89 -15 112 -7 23 -11 48 -10 55 2 6 -3 31 -10 55 -12 43 -13
87 -9 277 1 55 2 117 2 138 0 23 5 37 12 37 14 0 29 79 21 111 -3 13 2 28 14
40 10 10 19 33 19 49 0 35 -15 40 -23 8 -9 -34 -20 -14 -12 22 5 23 10 29 18
21 8 -8 16 -6 29 6 19 17 25 63 8 63 -21 0 -9 18 15 24 23 6 25 10 19 41 -6
36 11 51 22 20 4 -8 12 -15 20 -15 8 0 14 7 14 15 0 8 -6 15 -13 15 -8 0 -14
7 -14 15 0 10 7 13 24 9 16 -4 23 -2 23 8 0 31 59 54 75 28z m-575 -800 c0 -5
-4 -10 -10 -10 -5 0 -10 5 -10 10 0 6 5 10 10 10 6 0 10 -4 10 -10z m1858
-1262 c-6 -18 -28 -21 -28 -4 0 9 7 16 16 16 9 0 14 -5 12 -12z"/>
<path d="M2916 2305 c-3 -8 -1 -15 4 -15 6 0 10 7 10 15 0 8 -2 15 -4 15 -2 0
-6 -7 -10 -15z"/>
<path d="M1240 2290 c-101 -22 -147 -40 -189 -76 -41 -34 -43 -83 -5 -113 34
-27 48 -26 169 4 76 19 127 25 211 25 126 0 144 9 144 71 0 55 -21 75 -99 93
-86 20 -123 19 -231 -4z"/>
<path d="M2385 2304 c-67 -15 -106 -28 -120 -44 -23 -26 -29 -81 -12 -105 14
-18 31 -21 154 -26 93 -5 164 -14 218 -29 88 -24 139 -21 155 10 16 30 12 85
-7 102 -66 58 -292 111 -388 92z"/>
<path d="M1240 2020 c-66 -16 -125 -47 -173 -90 -46 -41 -97 -122 -97 -155 0
-26 18 -17 25 13 9 42 68 115 121 150 64 43 113 56 209 56 64 0 90 -4 129 -24
62 -30 109 -77 142 -141 29 -58 39 -61 22 -7 -33 108 -155 198 -277 204 -36 2
-82 -1 -101 -6z"/>
<path d="M2405 2016 c-66 -21 -101 -43 -145 -93 -44 -49 -70 -99 -70 -130 1
-10 14 7 30 38 65 127 196 188 344 160 73 -13 138 -45 185 -91 41 -40 91 -136
91 -175 0 -14 4 -24 8 -21 17 10 -16 124 -47 168 -88 123 -263 186 -396 144z"/>
<path d="M1285 1971 c-138 -36 -209 -166 -156 -287 29 -64 46 -82 106 -110 59
-28 96 -30 156 -9 170 60 188 301 29 382 -54 27 -94 34 -135 24z m13 -63 c7
-7 12 -24 12 -40 0 -53 -83 -64 -96 -12 -12 46 51 85 84 52z m178 -235 c-11
-47 -59 -83 -111 -83 -46 0 -60 14 -25 25 11 3 43 24 72 46 62 46 72 48 64 12z"/>
<path d="M2430 1960 c-171 -58 -199 -280 -48 -373 122 -76 269 -20 313 118 35
113 -28 224 -147 260 -62 18 -51 18 -118 -5z m44 -56 c20 -19 20 -34 0 -62
-21 -30 -59 -29 -80 3 -15 23 -15 27 0 50 19 29 56 33 80 9z m171 -231 c-3
-16 -18 -40 -33 -55 -20 -22 -35 -28 -69 -28 -24 0 -43 3 -43 8 0 4 23 20 51
37 28 16 58 38 66 47 24 26 36 22 28 -9z"/>
<path d="M1693 1285 c-32 -23 -47 -81 -34 -131 10 -38 14 -41 98 -77 95 -39
199 -57 236 -39 12 5 50 23 84 38 66 31 83 54 83 116 0 34 -23 92 -40 103 -7
4 -25 -5 -43 -22 -40 -36 -70 -50 -123 -56 -69 -8 -132 9 -180 48 -48 40 -52
41 -81 20z"/>
<path d="M1548 703 c7 -3 16 -2 19 1 4 3 -2 6 -13 5 -11 0 -14 -3 -6 -6z"/>
<path d="M1585 678 c-6 -26 -3 -34 16 -50 13 -10 36 -21 51 -24 15 -4 29 -12
32 -20 3 -8 17 -14 30 -14 15 0 30 -8 36 -20 8 -16 17 -19 37 -14 22 6 25 4
20 -10 -6 -16 -2 -17 30 -12 21 3 72 8 113 12 41 3 89 12 105 19 63 27 100 40
108 37 16 -5 77 51 77 70 0 18 -5 20 -42 15 -24 -3 -85 -15 -137 -26 -52 -12
-118 -21 -147 -21 -62 0 -219 35 -252 56 -13 9 -32 12 -44 8 -17 -5 -20 -3
-15 10 4 9 2 16 -3 16 -4 0 -12 -14 -15 -32z"/>
<path d="M2740 2989 c0 -5 5 -7 10 -4 6 3 10 8 10 11 0 2 -4 4 -10 4 -5 0 -10
-5 -10 -11z"/>
</g>
</svg>
